# xmcd CD database file
#
# Track frame offsets:
#	150
#	19955
#	44450
#	64667
#	83105
#	108097
#	128500
#	138562
#	156117
#	178750
#	205967
#	223295
#	240605
#	265010
#	283620
#
# Disc length: 3966 seconds
#
# Revision: 0
# Processed by: cddbd v1.5.1PL2 Copyright (c) Steve Scherf et al.
# Submitted via: CDex 1.51
#
DISCID=d90f7c0f
DTITLE=SEGI - SONGS OF THE WIND
DYEAR=2000
DGENRE=New Age
TTITLE0=ILUSION
TTITLE1=DULCE
TTITLE2=PUNA
TTITLE3=OJOS BELLOS
TTITLE4=PAISAJE
TTITLE5=CAPIBARA
TTITLE6=SUENO
TTITLE7=奇想天外
TTITLE8=HORIZONTE
TTITLE9=ADIOS
TTITLE10=QUE PASA AMIGO
TTITLE11=EL SUR
TTITLE12=VIENTO
TTITLE13=ANDES
TTITLE14=CANTO BOLIVIANO
EXTD=YEAR: 2000
EXTT0=
EXTT1=
EXTT2=
EXTT3=
EXTT4=
EXTT5=
EXTT6=
EXTT7=
EXTT8=
EXTT9=
EXTT10=
EXTT11=
EXTT12=
EXTT13=
EXTT14=
PLAYORDER=
